<svg width="124" height="125" viewBox="0 0 124 125" fill="none" xmlns="http://www.w3.org/2000/svg">
<g filter="url(#filter0_d)">
<rect x="32.655" y="7.6731" width="83" height="83" rx="41.5" transform="rotate(15 32.655 7.6731)" fill="white"/>
<path d="M57.6315 78.8115C57.9121 78.8867 58.1727 78.9565 58.4547 78.9461C59.8327 79.0146 61.1513 78.4227 61.9746 77.3544C62.3039 76.9271 62.5692 76.4182 62.7142 75.877L54.697 73.7288C54.4121 74.7919 54.5613 75.9247 55.1116 76.8779C55.6619 77.8311 56.5684 78.5266 57.6315 78.8115ZM76.8355 59.2529C78.4842 53.0997 75.5753 46.7994 70.2082 43.9005L70.5734 42.5376C70.787 41.7402 70.6752 40.8907 70.2624 40.1758C69.8497 39.4609 69.1699 38.9392 68.3725 38.7256C67.5751 38.5119 66.7256 38.6238 66.0107 39.0365C65.2958 39.4493 64.7741 40.1291 64.5605 40.9264L64.1953 42.2894C58.0778 42.1109 52.4284 46.1181 50.7797 52.2713L47.8259 63.2949L42.7432 66.2294L42.2061 68.2337L76.2792 77.3635L76.8162 75.3592L73.8817 70.2765L76.8355 59.2529ZM81.0525 59.3087L85.0611 60.3828C86.4844 53.8685 84.8321 47.3678 81.0192 42.4365L77.3851 44.5346C80.7113 48.4763 82.175 53.9168 81.0525 59.3087ZM57.6628 39.2501L55.5647 35.6159C49.797 37.9802 45.1157 42.7838 43.031 49.1209L47.0396 50.195C48.8235 44.9803 52.8115 41.0006 57.6628 39.2501Z" fill="#FFC147"/>
</g>
<defs>
<filter id="filter0_d" x="0.173096" y="0.673096" width="123.654" height="123.654" filterUnits="userSpaceOnUse" color-interpolation-filters="sRGB">
<feFlood flood-opacity="0" result="BackgroundImageFix"/>
<feColorMatrix in="SourceAlpha" type="matrix" values="0 0 0 0 0 0 0 0 0 0 0 0 0 0 0 0 0 0 127 0"/>
<feMorphology radius="1" operator="dilate" in="SourceAlpha" result="effect1_dropShadow"/>
<feOffset dy="4"/>
<feGaussianBlur stdDeviation="5"/>
<feColorMatrix type="matrix" values="0 0 0 0 0 0 0 0 0 0 0 0 0 0 0 0 0 0 0.49 0"/>
<feBlend mode="normal" in2="BackgroundImageFix" result="effect1_dropShadow"/>
<feBlend mode="normal" in="SourceGraphic" in2="effect1_dropShadow" result="shape"/>
</filter>
</defs>
</svg>
