<?xml version="1.0" encoding="utf-8"?>
<!-- Generator: Adobe Illustrator 24.2.3, SVG Export Plug-In . SVG Version: 6.00 Build 0)  -->
<svg version="1.1" id="Layer_1" xmlns="http://www.w3.org/2000/svg" xmlns:xlink="http://www.w3.org/1999/xlink" x="0px" y="0px"
	 viewBox="0 0 3093 369" style="enable-background:new 0 0 3093 369;" xml:space="preserve">
<style type="text/css">
	.st0{fill:url(#SVGID_1_);}
</style>
<linearGradient id="SVGID_1_" gradientUnits="userSpaceOnUse" x1="277.1001" y1="102.8669" x2="3109.1182" y2="154.3184" gradientTransform="matrix(1 0 0 -1 0 370)">
	<stop  offset="0" style="stop-color:#2194f3"/>
	<stop  offset="1" style="stop-color:#ffffff"/>
</linearGradient>
<path class="st0" d="M3106.6,82.6c-29,4.1-57.9,8.3-86.9,12.4c-86.9,12.2-260.7,38.1-434.2,91.8
	c-173.5,54.4-346.6,136.7-520.7,139.1c-174.1,1.7-349.3-76.5-523.8-103.7s-348.3-1.3-522.1,23.5s-347.7,50.7-522.1,23.5
	c-75.9-11.8-151.8-33.3-220.7-57.1c69,24.3,145.5,46.8,222.3,60c173.3,29.9,347.5,10.8,521.7-7.3c174.2-18.1,348.4-37.2,521.7-7.3
	s345.8,106.8,519.6,110c173.8,2.6,349-68.5,523.7-113.8c174.7-44.8,348.9-63.9,436-72.7l85.6-9.1V82.6H3106.6z"/>
</svg>
