<svg width="140" height="24" viewBox="0 0 140 24" fill="none" xmlns="http://www.w3.org/2000/svg">
<path d="M24.9415 13.2539H14.8067C14.3574 13.2539 13.941 13.4956 13.7172 13.887L10.6449 19.2765C10.6084 19.3391 10.5425 19.3791 10.4696 19.3791H10.1938C9.51375 19.3791 8.88402 19.0157 8.54399 18.4243L8.45378 18.2678C8.41735 18.2052 8.41735 18.1287 8.45378 18.0661L11.5366 12.6365C11.7586 12.2487 11.7586 11.7722 11.5366 11.3826L8.43123 5.96696C8.3948 5.90435 8.3948 5.82782 8.43123 5.76521L8.54399 5.5687C8.88228 4.98087 9.50855 4.61913 10.1851 4.61913H10.3673C10.4384 4.61913 10.5043 4.65739 10.5408 4.71826L13.6999 10.1026C13.9237 10.4939 14.34 10.7356 14.7893 10.7356H24.9415C25.6094 10.7356 26.0275 10.0104 25.6927 9.4313L21.1561 1.56348L21.1475 1.54782C21.1423 1.53912 21.1371 1.53043 21.1318 1.52174C21.0815 1.43652 21.0278 1.35478 20.9705 1.27652C20.3928 0.481733 19.463 0 18.4706 0H8.21091C8.086 0 7.96109 0.0086982 7.83792 0.0243504C6.99306 0.12522 6.2228 0.580869 5.72144 1.2713C5.65725 1.35826 5.59653 1.45044 5.54275 1.54435L0.412888 10.4522C0.171748 10.8696 0.0364327 11.3304 0.00694076 11.7965C0.00347112 11.8626 0 11.9304 0 11.9965C0 12.5304 0.137052 13.0626 0.412888 13.5409L5.54275 22.4487C5.61388 22.5722 5.69368 22.6904 5.77869 22.8C6.31475 23.4922 7.12144 23.9322 8.00099 23.993C8.07039 23.9983 8.14151 24 8.21091 24H8.22999H18.4602C18.71 24 18.9546 23.9687 19.1906 23.9113C19.8706 23.7461 20.483 23.3496 20.915 22.7913C20.9948 22.6887 21.0677 22.5809 21.1336 22.4678C21.1388 22.4591 21.144 22.4522 21.1492 22.4435L21.1527 22.4365L25.6944 14.56C26.0275 13.9791 25.6094 13.2539 24.9415 13.2539Z" fill="url(#paint0_linear)"/>
<g opacity="0.25">
<path opacity="0.25" d="M24.9415 13.2539H14.8067C14.3574 13.2539 13.941 13.4956 13.7172 13.887L10.6449 19.2765C10.6084 19.3391 10.5425 19.3791 10.4696 19.3791H10.1938C9.51375 19.3791 8.88402 19.0157 8.54399 18.4243L8.45378 18.2678C8.41735 18.2052 8.41735 18.1287 8.45378 18.0661L11.5366 12.6365C11.7586 12.2487 11.7586 11.7722 11.5366 11.3826L8.43123 5.96696C8.3948 5.90435 8.3948 5.82782 8.43123 5.76521L8.54399 5.5687C8.88228 4.98087 9.50855 4.61913 10.1851 4.61913H10.3673C10.4384 4.61913 10.5043 4.65739 10.5408 4.71826L13.6999 10.1026C13.9237 10.4939 14.34 10.7356 14.7893 10.7356H24.9415C25.6094 10.7356 26.0275 10.0104 25.6927 9.4313L21.1561 1.56348L21.1475 1.54782C21.1423 1.53912 21.1371 1.53043 21.1318 1.52174C21.0815 1.43652 21.0278 1.35478 20.9705 1.27652C20.3928 0.481733 19.463 0 18.4706 0H8.21091C8.086 0 7.96109 0.0086982 7.83792 0.0243504C6.99306 0.12522 6.2228 0.580869 5.72144 1.2713C5.65725 1.35826 5.59653 1.45044 5.54275 1.54435L0.412888 10.4522C0.171748 10.8696 0.0364327 11.3304 0.00694076 11.7965C0.00347112 11.8626 0 11.9304 0 11.9965C0 12.5304 0.137052 13.0626 0.412888 13.5409L5.54275 22.4487C5.61388 22.5722 5.69368 22.6904 5.77869 22.8C6.31475 23.4922 7.12144 23.9322 8.00099 23.993C8.07039 23.9983 8.14151 24 8.21091 24H8.22999H18.4602C18.71 24 18.9546 23.9687 19.1906 23.9113C19.8706 23.7461 20.483 23.3496 20.915 22.7913C20.9948 22.6887 21.0677 22.5809 21.1336 22.4678C21.1388 22.4591 21.144 22.4522 21.1492 22.4435L21.1527 22.4365L25.6944 14.56C26.0275 13.9791 25.6094 13.2539 24.9415 13.2539Z" fill="#FF0BD1"/>
</g>
<path d="M37.073 6.84534C38.6638 6.84534 40.102 7.69404 41.0614 8.88013L42.9176 7.30622C41.2956 5.30274 39.1028 4.45404 37.073 4.45404C32.2693 4.45404 29.5873 7.86969 29.5873 12.1132C29.5873 16.9897 33.0344 19.628 37.073 19.628C39.6839 19.628 41.6425 18.4123 42.9176 16.8053L41.0614 15.221C40.1228 16.3967 38.7454 17.2453 37.073 17.2453C34.247 17.2453 32.2173 15.1601 32.2173 12.1132C32.219 8.95143 34.1967 6.84534 37.073 6.84534Z" fill="white"/>
<path d="M49.2862 9.12543C48.0423 9.12543 46.9095 9.72891 46.1149 10.8124H46.0837V9.27847H43.7487V19.4924H46.0837V14.6454C46.0837 12.9898 47.0934 11.7115 48.8681 11.7115C49.0312 11.7115 49.307 11.722 49.5724 11.7428V9.13586C49.4892 9.12543 49.3868 9.12543 49.2862 9.12543Z" fill="white"/>
<path d="M55.5089 16.1706H55.4881L52.6742 9.27838H50.2159L54.357 18.9201L52.5198 23.6349H54.978L60.578 9.27838H58.1302L55.5089 16.1706Z" fill="white"/>
<path d="M66.8407 9.12543C65.4945 9.12543 64.3825 9.60543 63.607 10.5167H63.5654V9.28021H61.2321V23.635H63.5671V18.2367H63.5984C64.3426 19.1463 65.4338 19.6576 66.8216 19.6576C69.6459 19.6576 71.7572 17.5915 71.7572 14.4333C71.7572 11.3446 69.6459 9.12543 66.8407 9.12543ZM66.4539 17.5306C64.7919 17.5306 63.4752 16.2941 63.4752 14.4419C63.4752 12.6315 64.6895 11.2524 66.4435 11.2524C68.0759 11.2524 69.3805 12.4802 69.3805 14.4419C69.3805 16.2524 68.1783 17.5306 66.4539 17.5306Z" fill="white"/>
<path d="M76.5211 17.4697C75.8688 17.4697 75.5427 17.0906 75.5427 16.0488V11.2732H78.5422V9.28013H75.5427V5.6297H73.2076V9.28013H71.9637V11.2732H73.2076V16.2627C73.2076 18.5427 74.2988 19.6575 76.0527 19.6575C77.3885 19.6575 78.0321 19.381 78.6428 19.054L78.0304 17.0297C77.4909 17.3149 76.9184 17.4697 76.5211 17.4697Z" fill="white"/>
<path d="M84.1768 9.12543C80.9535 9.12543 78.8214 11.3846 78.8214 14.402C78.8214 17.3985 80.9535 19.6576 84.1768 19.6576C87.2977 19.6576 89.5218 17.5098 89.5218 14.402C89.5218 11.2733 87.2977 9.12543 84.1768 9.12543ZM84.1768 17.5306C82.4229 17.5306 81.1981 16.1498 81.1981 14.402C81.1981 12.6228 82.3917 11.2524 84.1768 11.2524C85.8492 11.2524 87.1451 12.5306 87.1451 14.402C87.1451 16.242 85.8301 17.5306 84.1768 17.5306Z" fill="white"/>
<path d="M97.9028 13.5219H97.8612L92.9655 4.61584H90.4362V19.4941H92.9551V9.52368H92.9863L97.0458 16.6315H98.6974L102.757 9.52368H102.788V19.4941H105.307V4.61584H102.778L97.9028 13.5219Z" fill="white"/>
<path d="M111.577 9.12543C108.353 9.12543 106.221 11.3846 106.221 14.402C106.221 17.3985 108.353 19.6576 111.577 19.6576C114.698 19.6576 116.922 17.5098 116.922 14.402C116.92 11.2733 114.698 9.12543 111.577 9.12543ZM111.577 17.5306C109.823 17.5306 108.598 16.1498 108.598 14.402C108.598 12.6228 109.792 11.2524 111.577 11.2524C113.249 11.2524 114.545 12.5306 114.545 14.402C114.543 16.242 113.228 17.5306 111.577 17.5306Z" fill="white"/>
<path d="M123.202 9.12543C119.978 9.12543 117.846 11.3846 117.846 14.402C117.846 17.3985 119.978 19.6576 123.202 19.6576C126.323 19.6576 128.547 17.5098 128.547 14.402C128.547 11.2733 126.323 9.12543 123.202 9.12543ZM123.202 17.5306C121.448 17.5306 120.223 16.1498 120.223 14.402C120.223 12.6228 121.417 11.2524 123.202 11.2524C124.874 11.2524 126.17 12.5306 126.17 14.402C126.17 16.242 124.853 17.5306 123.202 17.5306Z" fill="white"/>
<path d="M137.653 10.5063H137.602C136.837 9.59671 135.715 9.12541 134.379 9.12541C131.574 9.12541 129.463 11.3445 129.463 14.4315C129.463 17.5915 131.574 19.6559 134.4 19.6559C135.849 19.6559 136.971 19.1045 137.715 18.1219H137.757V19.4924H139.991V4.61584H137.656V10.5063H137.653ZM134.766 17.5306C133.042 17.5306 131.839 16.2524 131.839 14.4437C131.839 12.4802 133.146 11.2541 134.776 11.2541C136.53 11.2541 137.745 12.635 137.745 14.4437C137.745 16.2924 136.428 17.5306 134.766 17.5306Z" fill="white"/>
<defs>
<linearGradient id="paint0_linear" x1="6.80685" y1="24.0934" x2="19.6633" y2="0.35061" gradientUnits="userSpaceOnUse">
<stop stop-color="#FF009E"/>
<stop offset="1" stop-color="#FF8820"/>
</linearGradient>
</defs>
</svg>
