<svg width="659" height="630" viewBox="0 0 659 630" fill="none" xmlns="http://www.w3.org/2000/svg">
<g opacity="0.9">
<path opacity="0.06" fill-rule="evenodd" clip-rule="evenodd" d="M334.967 116.032C368.382 113.167 398.344 135.809 425.93 154.918C451.982 172.963 474.749 195.293 489.744 223.244C504.478 250.707 509.477 281.62 510.62 312.779C511.795 344.8 510.355 377.339 496.457 406.198C482.028 436.158 458.298 460.414 430.65 478.831C401.891 497.987 369.422 516.12 334.967 513.768C301.017 511.45 274.41 485.806 246.527 466.26C220.734 448.18 194.559 430.4 177.879 403.651C160.872 376.379 153.402 344.833 150.818 312.779C148.081 278.827 142.776 240.753 162.511 213.017C182.17 185.389 223.038 186.388 252.568 169.781C281.644 153.43 301.746 118.88 334.967 116.032Z" fill="#EC407A"/>
<path opacity="0.06" fill-rule="evenodd" clip-rule="evenodd" d="M317.545 93.7257C356.553 90.8181 394.715 100.092 430.943 114.826C471.053 131.139 514.734 147.433 538.506 183.593C562.584 220.221 565.842 267.61 559.925 311.029C554.37 351.797 525.695 383.595 506.306 419.895C486.197 457.542 481.436 509.342 443.51 528.976C405.431 548.691 360.366 520.043 317.545 517.618C277.591 515.356 235.47 532.811 199.562 515.164C163.202 497.294 141.917 458.949 124.146 422.57C107.151 387.781 102.211 349.667 99.8431 311.029C97.3514 270.365 88.2155 225.774 109.976 191.317C131.659 156.982 176.743 148.321 213.513 131.033C247.427 115.088 280.166 96.5118 317.545 93.7257Z" fill="#EC407A"/>
<path opacity="0.06" fill-rule="evenodd" clip-rule="evenodd" d="M298.083 40.6675C343.244 45.6483 389.125 22.1164 432.604 34.9223C477.732 48.2136 519.379 76.1519 546.104 113.717C572.435 150.727 563.045 200.899 580.344 242.584C601.219 292.882 656.244 330.148 658.4 384.3C660.554 438.39 627.595 489.522 591.837 531.192C556.323 572.579 510.553 612.804 455.52 620.725C400.477 628.648 353.721 572.378 298.083 573.472C240.764 574.6 192.841 641.549 137.529 626.981C85.2376 613.208 56.8367 554.242 38.264 505.043C21.173 459.769 44.3316 410.033 37.6045 362.281C31.5712 319.455 -3.20109 282.321 0.823197 239.276C4.94071 195.233 36.489 159.338 60.1181 121.466C86.3227 79.466 100.029 19.7824 147.913 3.52371C197.28 -13.2385 246.094 34.9337 298.083 40.6675Z" fill="#EC407A"/>
</g>
</svg>
