<svg width="3093" height="369" viewBox="0 0 3093 369" fill="none" xmlns="http://www.w3.org/2000/svg">
<path d="M-19.9062 87.3378L66.3233 126.094C152.545 165.25 325.015 242.162 498.339 272.076C671.663 301.99 845.877 282.906 1020.07 264.821C1194.27 246.737 1368.48 227.653 1541.81 257.567C1715.13 287.48 1887.6 364.393 2061.41 367.607C2235.23 370.222 2410.39 299.14 2585.08 253.757C2759.76 208.973 2933.97 189.889 3021.07 181.047L3108.17 171.805L3113.62 52.5976L3007.87 88.5481C2920.96 87.0906 2764.26 107.742 2590.44 104.827C2416.63 101.912 2239.68 125.231 2065.86 122.316C1892.05 119.402 1718.24 116.487 1544.42 113.572C1370.61 110.657 1196.79 107.742 1022.98 104.827C849.165 101.912 675.351 98.9974 501.537 96.0825C327.722 93.1676 153.908 90.2527 67.0009 88.7953L-19.9062 87.3378Z" fill="url(#paint0_linear)"/>
<path d="M-28.0146 84.4154L59.5593 123.846C147.139 163.71 322.278 241.921 496.772 269.163C671.265 296.405 845.085 270.51 1018.92 245.7C1192.75 220.889 1366.57 194.994 1541.07 222.236C1715.56 249.478 1890.7 327.689 2064.83 325.977C2238.94 323.614 2412.05 241.328 2585.51 186.913C2758.97 133.148 2932.79 107.253 3019.71 95.0645L3106.63 82.4423L3106.19 47.7405L3019.13 48.7592C2932.06 49.778 2757.94 51.8155 2583.82 53.853C2409.7 55.8905 2235.58 57.928 2061.45 59.9655C1887.33 62.003 1713.21 64.0405 1539.09 66.0779C1364.96 68.1154 1190.84 70.1529 1016.72 72.1904C842.597 74.2279 668.475 76.2654 494.352 78.3029C320.23 80.3404 146.108 82.3779 59.0465 83.3967L-28.0146 84.4154Z" fill="#161616"/>
<defs>
<linearGradient id="paint0_linear" x1="-21.3417" y1="166.352" x2="3110.52" y2="223.251" gradientUnits="userSpaceOnUse">
<stop stop-color="#F4977B"/>
<stop offset="1" stop-color="#F9567E"/>
</linearGradient>
</defs>
</svg>
